<svg width="24" height="24" viewBox="0 0 24 24" xmlns="http://www.w3.org/2000/svg"><g fill="none" fill-rule="evenodd"><path d="M5.216 16.24A8 8 0 107.76 5.215" stroke="#000" stroke-width="1.5" stroke-linecap="round"/><path stroke="#000" stroke-width="1.5" stroke-linecap="round" stroke-linejoin="round" d="M10 6.5l-2.5-1 .5-3"/><path d="M11.36 15.5v-.86H9.82v-6.2h-.88l-1.69 1.64.6.62.66-.65c.26-.25.34-.41.34-.41h.02s-.007.162-.01.346v4.654H7.3v.86h4.06zm2.91.12c1.43 0 2.5-1.02 2.5-2.38 0-1.27-.97-2.3-2.46-2.3-.52 0-.91.22-.91.22h-.02l.008-.037c.012-.059.035-.183.042-.333l.17-1.49h2.7v-.86h-3.56l-.35 3.5.57.21s.5-.35 1.19-.35c.91 0 1.61.6 1.61 1.45 0 .86-.72 1.43-1.55 1.43-1 0-1.55-.76-1.55-.76l-.55.72s.71.98 2.16.98z" fill="#000" fill-rule="nonzero"/></g></svg>
