<?xml version="1.0" encoding="UTF-8"?>
<svg width="24px" height="24px" viewBox="0 0 24 24" version="1.1" xmlns="http://www.w3.org/2000/svg" xmlns:xlink="http://www.w3.org/1999/xlink">
    <g id="Artboard" stroke="none" stroke-width="1" fill="none" fill-rule="evenodd">
        <path d="M13.9078329,2.90052235 L14.3064237,5.71280209 C14.9473755,5.93746002 15.5105446,6.26232803 16.0376438,6.65800754 L16.2983807,6.86161215 L18.929,5.804 L20.8350337,9.09933056 L18.5767737,10.8569911 C18.6676573,11.2075539 18.7,11.6038473 18.7,12 C18.7,12.307325 18.6815101,12.5960072 18.6441925,12.8753684 L18.6005864,13.1519679 L20.825,14.9 L18.9196951,18.1953175 L16.28402,17.1366363 C15.785667,17.5565234 15.2279239,17.9092792 14.6102245,18.1668264 L14.2963758,18.2875361 L13.8977589,21.1 L10.092,21.1 L9.69357627,18.2871979 C9.05262455,18.06254 8.48945537,17.737672 7.96235617,17.3419925 L7.70161929,17.1383879 L5.07,18.195 L3.16496626,14.9006694 L5.42428307,13.1421864 C5.33259325,12.8045088 5.3,12.3852567 5.3,12 C5.3,11.6896909 5.34518603,11.3575695 5.39663217,11.0635918 L5.43578232,10.8511972 L3.18492363,9.09929738 L5.08031678,5.80468729 L7.71057668,6.86119336 C8.21052504,6.45883118 8.76932363,6.09267423 9.38873242,5.83363474 L9.70349582,5.71336974 L10.087,3.005 L13.9078329,2.90052235 Z M12,7.9 C10.8725,7.9 9.84718155,8.36071167 9.10394661,9.10394661 C8.36071167,9.84718155 7.9,10.8725 7.9,12 C7.9,13.1275 8.36071167,14.1528184 9.10394661,14.8960534 C9.84718155,15.6392883 10.8725,16.1 12,16.1 C13.1275,16.1 14.1528184,15.6392883 14.8960534,14.8960534 C15.6392883,14.1528184 16.1,13.1275 16.1,12 C16.1,10.8725 15.6392883,9.84718155 14.8960534,9.10394661 C14.1528184,8.36071167 13.1275,7.9 12,7.9 Z" id="Shape" stroke="#FFFFFF" fill-rule="nonzero"></path>
        <path d="M19.14,12.94 C19.18,12.64 19.2,12.33 19.2,12 C19.2,11.68 19.18,11.36 19.13,11.06 L21.16,9.48 C21.34,9.34 21.39,9.07 21.28,8.87 L19.36,5.55 C19.24,5.33 18.99,5.26 18.77,5.33 L16.38,6.29 C15.88,5.91 15.35,5.59 14.76,5.35 L14.4,2.81 C14.36,2.57 14.16,2.4 13.92,2.4 L10.08,2.4 C9.84,2.4 9.65,2.57 9.61,2.81 L9.25,5.35 C8.66,5.59 8.12,5.92 7.63,6.29 L5.24,5.33 C5.02,5.25 4.77,5.33 4.65,5.55 L2.74,8.87 C2.62,9.08 2.66,9.34 2.86,9.48 L4.89,11.06 C4.84,11.36 4.8,11.69 4.8,12 C4.8,12.31 4.82,12.64 4.87,12.94 L2.84,14.52 C2.66,14.66 2.61,14.93 2.72,15.13 L4.64,18.45 C4.76,18.67 5.01,18.74 5.23,18.67 L7.62,17.71 C8.12,18.09 8.65,18.41 9.24,18.65 L9.6,21.19 C9.65,21.43 9.84,21.6 10.08,21.6 L13.92,21.6 C14.16,21.6 14.36,21.43 14.39,21.19 L14.75,18.65 C15.34,18.41 15.88,18.09 16.37,17.71 L18.76,18.67 C18.98,18.75 19.23,18.67 19.35,18.45 L21.27,15.13 C21.39,14.91 21.34,14.66 21.15,14.52 L19.14,12.94 Z M12,15.6 C10.02,15.6 8.4,13.98 8.4,12 C8.4,10.02 10.02,8.4 12,8.4 C13.98,8.4 15.6,10.02 15.6,12 C15.6,13.98 13.98,15.6 12,15.6 Z" id="Shape-Copy" stroke="#000000" fill-rule="nonzero"></path>
    </g>
</svg>
