<svg width="24" height="24" xmlns="http://www.w3.org/2000/svg" xmlns:xlink="http://www.w3.org/1999/xlink"><defs><filter x="-14.3%" y="-7.1%" width="128.6%" height="114.3%" filterUnits="objectBoundingBox" id="a"><feMorphology radius="1" operator="dilate" in="SourceAlpha" result="shadowSpreadOuter1"/><feOffset in="shadowSpreadOuter1" result="shadowOffsetOuter1"/><feMorphology radius="1.5" in="SourceAlpha" result="shadowInner"/><feOffset in="shadowInner" result="shadowInner"/><feComposite in="shadowOffsetOuter1" in2="shadowInner" operator="out" result="shadowOffsetOuter1"/><feColorMatrix values="0 0 0 0 1 0 0 0 0 1 0 0 0 0 1 0 0 0 0.5 0" in="shadowOffsetOuter1"/></filter><filter x="-6.2%" y="-4.5%" width="112.5%" height="109.1%" filterUnits="objectBoundingBox" id="c"><feMorphology radius=".5" operator="dilate" in="SourceAlpha" result="shadowSpreadOuter1"/><feOffset in="shadowSpreadOuter1" result="shadowOffsetOuter1"/><feMorphology radius="1.5" in="SourceAlpha" result="shadowInner"/><feOffset in="shadowInner" result="shadowInner"/><feComposite in="shadowOffsetOuter1" in2="shadowInner" operator="out" result="shadowOffsetOuter1"/><feColorMatrix values="0 0 0 0 1 0 0 0 0 1 0 0 0 0 1 0 0 0 0.5 0" in="shadowOffsetOuter1"/></filter><filter x="-28.3%" y="-28.3%" width="156.7%" height="156.7%" filterUnits="objectBoundingBox" id="e"><feMorphology radius="1.25" operator="dilate" in="SourceAlpha" result="shadowSpreadOuter1"/><feOffset in="shadowSpreadOuter1" result="shadowOffsetOuter1"/><feMorphology radius="1.5" in="SourceAlpha" result="shadowInner"/><feOffset in="shadowInner" result="shadowInner"/><feComposite in="shadowOffsetOuter1" in2="shadowInner" operator="out" result="shadowOffsetOuter1"/><feColorMatrix values="0 0 0 0 1 0 0 0 0 1 0 0 0 0 1 0 0 0 0.5 0" in="shadowOffsetOuter1"/></filter><path d="M9 1.5h6.5a2 2 0 012 2v17a2 2 0 01-2 2H7" id="b"/><path d="M6 1h12a2 2 0 012 2v18a2 2 0 01-2 2H6a2 2 0 01-2-2V3a2 2 0 012-2z" id="d"/><path id="f" d="M15 14l-4 4-4-4 4-4 2 2-2 2"/></defs><g fill="none" fill-rule="evenodd"><use fill="#000" filter="url(#a)" xlink:href="#b"/><use stroke="#000" xlink:href="#b"/><use fill="#000" filter="url(#c)" xlink:href="#d"/><path stroke="#000" d="M18 1.5c.414 0 .79.168 1.06.44.272.27.44.646.44 1.06h0v18c0 .414-.168.79-.44 1.06-.27.272-.646.44-1.06.44h0H6c-.414 0-.79-.168-1.06-.44A1.495 1.495 0 014.5 21h0V3c0-.414.168-.79.44-1.06.27-.272.646-.44 1.06-.44h0z" stroke-linejoin="square"/><path d="M9 1.5h6.5a2 2 0 012 2v17a2 2 0 01-2 2H7h0" stroke="#000"/><g stroke-linecap="square"><use fill="#000" filter="url(#e)" xlink:href="#f"/><use stroke="#000" stroke-width="1.5" xlink:href="#f"/></g></g></svg>