<svg width="24" height="24" xmlns="http://www.w3.org/2000/svg" xmlns:xlink="http://www.w3.org/1999/xlink"><defs><filter x="-27.3%" y="-27.3%" width="154.5%" height="154.5%" filterUnits="objectBoundingBox" id="a"><feMorphology radius="1" operator="dilate" in="SourceAlpha" result="shadowSpreadOuter1"/><feOffset in="shadowSpreadOuter1" result="shadowOffsetOuter1"/><feMorphology radius="1.5" in="SourceAlpha" result="shadowInner"/><feOffset in="shadowInner" result="shadowInner"/><feComposite in="shadowOffsetOuter1" in2="shadowInner" operator="out" result="shadowOffsetOuter1"/><feColorMatrix values="0 0 0 0 1 0 0 0 0 1 0 0 0 0 1 0 0 0 1 0" in="shadowOffsetOuter1"/></filter><filter x="-6.2%" y="-4.5%" width="112.5%" height="109.1%" filterUnits="objectBoundingBox" id="c"><feMorphology radius=".5" operator="dilate" in="SourceAlpha" result="shadowSpreadOuter1"/><feOffset in="shadowSpreadOuter1" result="shadowOffsetOuter1"/><feMorphology radius="1.5" in="SourceAlpha" result="shadowInner"/><feOffset in="shadowInner" result="shadowInner"/><feComposite in="shadowOffsetOuter1" in2="shadowInner" operator="out" result="shadowOffsetOuter1"/><feColorMatrix values="0 0 0 0 1 0 0 0 0 1 0 0 0 0 1 0 0 0 1 0" in="shadowOffsetOuter1"/></filter><filter x="-16.7%" y="-20%" width="133.3%" height="140%" filterUnits="objectBoundingBox" id="e"><feMorphology radius=".5" operator="dilate" in="SourceAlpha" result="shadowSpreadOuter1"/><feOffset in="shadowSpreadOuter1" result="shadowOffsetOuter1"/><feMorphology radius="1.5" in="SourceAlpha" result="shadowInner"/><feOffset in="shadowInner" result="shadowInner"/><feComposite in="shadowOffsetOuter1" in2="shadowInner" operator="out" result="shadowOffsetOuter1"/><feColorMatrix values="0 0 0 0 1 0 0 0 0 1 0 0 0 0 1 0 0 0 1 0" in="shadowOffsetOuter1"/></filter><filter x="-37.5%" y="-100%" width="175%" height="300%" filterUnits="objectBoundingBox" id="g"><feMorphology radius="1" operator="dilate" in="SourceAlpha" result="shadowSpreadOuter1"/><feOffset in="shadowSpreadOuter1" result="shadowOffsetOuter1"/><feMorphology radius="1.5" in="SourceAlpha" result="shadowInner"/><feOffset in="shadowInner" result="shadowInner"/><feComposite in="shadowOffsetOuter1" in2="shadowInner" operator="out" result="shadowOffsetOuter1"/><feColorMatrix values="0 0 0 0 1 0 0 0 0 1 0 0 0 0 1 0 0 0 1 0" in="shadowOffsetOuter1"/></filter><filter x="-37.5%" y="-100%" width="175%" height="300%" filterUnits="objectBoundingBox" id="i"><feMorphology radius="1" operator="dilate" in="SourceAlpha" result="shadowSpreadOuter1"/><feOffset in="shadowSpreadOuter1" result="shadowOffsetOuter1"/><feMorphology radius="1.5" in="SourceAlpha" result="shadowInner"/><feOffset in="shadowInner" result="shadowInner"/><feComposite in="shadowOffsetOuter1" in2="shadowInner" operator="out" result="shadowOffsetOuter1"/><feColorMatrix values="0 0 0 0 1 0 0 0 0 1 0 0 0 0 1 0 0 0 1 0" in="shadowOffsetOuter1"/></filter><filter x="-37.5%" y="-100%" width="175%" height="300%" filterUnits="objectBoundingBox" id="k"><feMorphology radius="1" operator="dilate" in="SourceAlpha" result="shadowSpreadOuter1"/><feOffset in="shadowSpreadOuter1" result="shadowOffsetOuter1"/><feMorphology radius="1.5" in="SourceAlpha" result="shadowInner"/><feOffset in="shadowInner" result="shadowInner"/><feComposite in="shadowOffsetOuter1" in2="shadowInner" operator="out" result="shadowOffsetOuter1"/><feColorMatrix values="0 0 0 0 1 0 0 0 0 1 0 0 0 0 1 0 0 0 1 0" in="shadowOffsetOuter1"/></filter><path d="M9.5 1v3.5a2 2 0 002 2H15" id="b"/><path d="M2 0h7.172a2 2 0 011.414.586l4.828 4.828A2 2 0 0116 6.828V20a2 2 0 01-2 2H2a2 2 0 01-2-2V2a2 2 0 012-2z" id="d"/><path id="f" d="M6 12h6v5H6z"/><path d="M13.5 12.5h4" id="h"/><path d="M13.5 14.5h4" id="j"/><path d="M13.5 16.5h4" id="l"/></defs><g fill="none" fill-rule="evenodd"><g transform="translate(4 1)"><use fill="#000" filter="url(#a)" xlink:href="#b"/><use stroke="#000" xlink:href="#b"/></g><g transform="translate(4 1)"><use fill="#000" filter="url(#c)" xlink:href="#d"/><path stroke="#000" d="M9.172.5a1.5 1.5 0 011.06.44h0l4.829 4.828a1.5 1.5 0 01.439 1.06h0V20c0 .414-.168.79-.44 1.06-.27.272-.646.44-1.06.44h0H2c-.414 0-.79-.168-1.06-.44A1.495 1.495 0 01.5 20h0V2c0-.414.168-.79.44-1.06C1.21.667 1.585.5 2 .5h7.172z" stroke-linejoin="square"/></g><path d="M13.5 2v3.5a2 2 0 002 2H19" stroke="#000"/><use fill="#000" filter="url(#e)" xlink:href="#f"/><path stroke="#000" stroke-linejoin="square" d="M6.5 12.5h5v4h-5z"/><g stroke-linecap="square"><use fill="#000" filter="url(#g)" xlink:href="#h"/><use stroke="#000" xlink:href="#h"/></g><g stroke-linecap="square"><use fill="#000" filter="url(#i)" xlink:href="#j"/><use stroke="#000" xlink:href="#j"/></g><g stroke-linecap="square"><use fill="#000" filter="url(#k)" xlink:href="#l"/><use stroke="#000" xlink:href="#l"/></g></g></svg>