<?xml version="1.0" encoding="utf-8"?>
<!-- Generator: Adobe Illustrator 25.3.1, SVG Export Plug-In . SVG Version: 6.00 Build 0)  -->
<svg version="1.1" id="Layer_1" xmlns="http://www.w3.org/2000/svg" xmlns:xlink="http://www.w3.org/1999/xlink" x="0px" y="0px"
	 width="36px" height="36px" viewBox="0 0 36 36" style="enable-background:new 0 0 36 36;" xml:space="preserve">
<style type="text/css">
	.st0{clip-path:url(#SVGID_2_);}
	.st1{clip-path:url(#SVGID_2_);fill:#EAEAEA;}
</style>
<g>
	<g>
		<defs>
			<path id="SVGID_1_" d="M32,5H4C1.8,5,0,6.8,0,9v18c0,2.2,1.8,4,4,4h28c2.2,0,4-1.8,4-4V9C36,6.8,34.2,5,32,5z"/>
		</defs>
		<clipPath id="SVGID_2_">
			<use xlink:href="#SVGID_1_"  style="overflow:visible;"/>
		</clipPath>
		<path class="st0" d="M32,5H4C1.8,5,0,6.8,0,9v18c0,2.2,1.8,4,4,4h28c2.2,0,4-1.8,4-4V9C36,6.8,34.2,5,32,5z"/>
		<rect y="19.4" class="st1" width="36" height="3"/>
		<rect y="13.6" class="st1" width="36" height="3"/>
		<rect y="7.7" class="st1" width="36" height="3"/>
		<rect y="25.3" class="st1" width="36" height="3"/>
		<rect y="5" class="st1" width="18" height="11.4"/>
		<g class="st0">
			<polygon points="2.7,6.9 3.3,7.1 3.6,6.9 3.3,6.7 			"/>
			<polygon points="3.6,6 3.4,6.6 3.6,6.9 3.8,6.6 			"/>
			<polygon points="4.5,6.9 4,6.7 3.6,6.9 4,7.1 			"/>
			<polygon points="2.5,9.5 3.4,9.1 3.6,9.6 3.8,9.1 4.7,9.5 3.6,6.9 			"/>
			<polygon points="7.9,6.9 8.5,7.1 8.9,6.9 8.5,6.7 			"/>
			<polygon points="8.9,6 8.6,6.6 8.9,6.9 9.1,6.6 			"/>
			<polygon points="9.8,6.9 9.2,6.7 8.9,6.9 9.2,7.1 			"/>
			<polygon points="7.8,9.5 8.6,9.1 8.9,9.6 9.1,9.1 9.9,9.5 8.9,6.9 			"/>
			<polygon points="13.2,6.9 13.8,7.1 14.1,6.9 13.8,6.7 			"/>
			<polygon points="14.1,6 13.9,6.6 14.1,6.9 14.3,6.6 			"/>
			<polygon points="15.1,6.9 14.5,6.7 14.1,6.9 14.5,7.1 			"/>
			<polygon points="13.9,9.1 14.1,9.6 14.3,9.1 15.2,9.5 14.1,6.9 13.1,9.5 			"/>
			<polygon points="2.7,12.6 3.3,12.8 3.6,12.6 3.3,12.3 			"/>
			<polygon points="3.6,11.6 3.4,12.2 3.6,12.6 3.8,12.2 			"/>
			<polygon points="4.5,12.6 4,12.3 3.6,12.6 4,12.8 			"/>
			<polygon points="2.5,15.1 3.4,14.8 3.6,15.3 3.8,14.8 4.7,15.1 3.6,12.6 			"/>
			<polygon points="7.9,12.6 8.5,12.8 8.9,12.6 8.5,12.3 			"/>
			<polygon points="8.9,11.6 8.6,12.2 8.9,12.6 9.1,12.2 			"/>
			<polygon points="9.8,12.6 9.2,12.3 8.9,12.6 9.2,12.8 			"/>
			<polygon points="7.8,15.1 8.6,14.8 8.9,15.3 9.1,14.8 9.9,15.1 8.9,12.6 			"/>
			<polygon points="13.2,12.6 13.8,12.8 14.1,12.6 13.8,12.3 			"/>
			<polygon points="14.1,11.6 13.9,12.2 14.1,12.6 14.3,12.2 			"/>
			<polygon points="15.1,12.6 14.5,12.3 14.1,12.6 14.5,12.8 			"/>
			<polygon points="13.1,15.1 13.9,14.8 14.1,15.3 14.3,14.8 15.2,15.1 14.1,12.6 			"/>
			<polygon points="5.3,9.4 5.9,9.6 6.2,9.4 5.9,9.1 			"/>
			<polygon points="6.2,8.4 6,9 6.2,9.4 6.5,9 			"/>
			<polygon points="7.2,9.4 6.6,9.1 6.2,9.4 6.6,9.6 			"/>
			<polygon points="5.2,12 6,11.6 6.2,12.1 6.5,11.6 7.3,12 6.2,9.4 			"/>
			<polygon points="10.5,9.4 11.1,9.6 11.5,9.4 11.1,9.1 			"/>
			<polygon points="11.5,8.4 11.2,9 11.5,9.4 11.7,9 			"/>
			<polygon points="12.4,9.4 11.8,9.1 11.5,9.4 11.8,9.6 			"/>
			<polygon points="10.4,12 11.2,11.6 11.5,12.1 11.7,11.6 12.5,12 11.5,9.4 			"/>
		</g>
	</g>
</g>
</svg>
