<?xml version="1.0" encoding="utf-8"?>
<!-- Generator: Adobe Illustrator 25.3.1, SVG Export Plug-In . SVG Version: 6.00 Build 0)  -->
<svg version="1.1" id="Layer_1" xmlns="http://www.w3.org/2000/svg" xmlns:xlink="http://www.w3.org/1999/xlink" x="0px" y="0px"
	 width="36px" height="36px" viewBox="0 0 36 36" style="enable-background:new 0 0 36 36;" xml:space="preserve">
<style type="text/css">
	.st0{clip-path:url(#SVGID_2_);fill:#FCDD0E;}
	.st1{clip-path:url(#SVGID_4_);fill:#DA121A;}
	.st2{clip-path:url(#SVGID_6_);fill:#DA121A;}
	.st3{clip-path:url(#SVGID_8_);fill:#DA121A;}
	.st4{clip-path:url(#SVGID_10_);fill:#DA121A;}
</style>
<g>
	<g>
		<defs>
			<path id="SVGID_1_" d="M32,5H4C1.8,5,0,6.8,0,9v18c0,2.2,1.8,4,4,4h28c2.2,0,4-1.8,4-4V9C36,6.8,34.2,5,32,5z"/>
		</defs>
		<clipPath id="SVGID_2_">
			<use xlink:href="#SVGID_1_"  style="overflow:visible;"/>
		</clipPath>
		<path class="st0" d="M32,5H4C1.8,5,0,6.8,0,9v18c0,2.2,1.8,4,4,4h28c2.2,0,4-1.8,4-4V9C36,6.8,34.2,5,32,5z"/>
	</g>
	<g>
		<defs>
			<path id="SVGID_3_" d="M32,5H4C1.8,5,0,6.8,0,9v18c0,2.2,1.8,4,4,4h28c2.2,0,4-1.8,4-4V9C36,6.8,34.2,5,32,5z"/>
		</defs>
		<clipPath id="SVGID_4_">
			<use xlink:href="#SVGID_3_"  style="overflow:visible;"/>
		</clipPath>
		<rect y="19.3" class="st1" width="36" height="3"/>
	</g>
	<g>
		<defs>
			<path id="SVGID_5_" d="M32,5H4C1.8,5,0,6.8,0,9v18c0,2.2,1.8,4,4,4h28c2.2,0,4-1.8,4-4V9C36,6.8,34.2,5,32,5z"/>
		</defs>
		<clipPath id="SVGID_6_">
			<use xlink:href="#SVGID_5_"  style="overflow:visible;"/>
		</clipPath>
		<rect y="13.7" class="st2" width="36" height="3"/>
	</g>
	<g>
		<defs>
			<path id="SVGID_7_" d="M32,5H4C1.8,5,0,6.8,0,9v18c0,2.2,1.8,4,4,4h28c2.2,0,4-1.8,4-4V9C36,6.8,34.2,5,32,5z"/>
		</defs>
		<clipPath id="SVGID_8_">
			<use xlink:href="#SVGID_7_"  style="overflow:visible;"/>
		</clipPath>
		<rect y="8.2" class="st3" width="36" height="3"/>
	</g>
	<g>
		<defs>
			<path id="SVGID_9_" d="M32,5H4C1.8,5,0,6.8,0,9v18c0,2.2,1.8,4,4,4h28c2.2,0,4-1.8,4-4V9C36,6.8,34.2,5,32,5z"/>
		</defs>
		<clipPath id="SVGID_10_">
			<use xlink:href="#SVGID_9_"  style="overflow:visible;"/>
		</clipPath>
		<rect y="24.8" class="st4" width="36" height="3"/>
	</g>
</g>
</svg>
