<?xml version="1.0" encoding="utf-8"?>
<!-- Generator: Adobe Illustrator 25.3.1, SVG Export Plug-In . SVG Version: 6.00 Build 0)  -->
<svg version="1.1" id="Layer_1" xmlns="http://www.w3.org/2000/svg" xmlns:xlink="http://www.w3.org/1999/xlink" x="0px" y="0px"
	 width="36px" height="36px" viewBox="0 0 36 36" style="enable-background:new 0 0 36 36;" xml:space="preserve">
<style type="text/css">
	.st0{clip-path:url(#SVGID_2_);fill:#F0F0F0;}
	.st1{clip-path:url(#SVGID_2_);fill:#00B140;}
	.st2{clip-path:url(#SVGID_2_);fill:#C8102E;}
</style>
<g>
	<defs>
		<path id="SVGID_1_" d="M32,5H4C1.8,5,0,6.8,0,9v18c0,2.2,1.8,4,4,4h28c2.2,0,4-1.8,4-4V9C36,6.8,34.2,5,32,5z"/>
	</defs>
	<clipPath id="SVGID_2_">
		<use xlink:href="#SVGID_1_"  style="overflow:visible;"/>
	</clipPath>
	<path class="st0" d="M32,5H4C1.8,5,0,6.8,0,9v18c0,2.2,1.8,4,4,4h28c2.2,0,4-1.8,4-4V9C36,6.8,34.2,5,32,5z"/>
	<rect x="-1.7" y="17.6" class="st1" width="39.3" height="13.2"/>
	<path class="st2" d="M33,10.8c-0.6,0.9-2.6,2.8-3.5,3.7c0.5,0.1,1.3,0,1.7-0.1c-0.2,0.4-0.3,0.8-0.4,1.1c-4.2-2.6-4.9,4.5-0.6,2
		c-0.7,2.5-5,0.2-6.8,0.7c0.5-0.8,1.7-1.4,2.6-1.1c-1.3-1.3-0.2-3.4,2.2-4.1c-1.9-0.7-0.8-2.2,1.3-3.6c-2.4,0.6-7.1,4.5-5.6-0.4
		c-8.8,3.3-5.4,7-10.4,8.8c-0.5-1.1,0-1.2,0.8-1c-0.9-0.9-1.6-2.2,0.2-1.2c-0.5-1.2-2-2.4,0.2-1.6c0-0.9-2.1-1.8-0.1-1.5
		c-0.5-0.9-1.2-0.5-1.3-1.4c-0.6-0.5,0.6-0.7,1.1-1.2c-0.2,0-0.3,0-0.5,0.1c0.2-0.2,0.3-0.9,0.2-1.1c-0.1,0.3-0.5,0.4-0.9,0.5
		c0.1-0.4,0.2-0.8,0.1-0.9c-0.2,0.6-1.8,0.7-2,1.5c-1.1,0.2-2.1-0.7-2.9,0.7c-1.1-0.1-2.7,0.3-3.3,1.1c0.9-0.2,1.7-0.2,2.4,0
		c0,0.3,0.2,0.6,0.5,0.6c0,0,0,0.1,0.1,0.1C7,12.6,5.8,12.6,5,12.6c0.3-0.1,0.5-0.3,0.6-0.4c-0.5,0.1-2-0.5-2.6-1
		c0.2,0.9,1.5,2.3,2.3,2.5c-0.1-0.2-0.2-0.4-0.4-0.6c1-0.1,1.9,0,2.8,0.1C8,13.9,8,14.4,8.4,15c0-0.6,0.3-0.8,0.3-1.2
		c0.1,0.2,0.1,0.4,0.2,0.6c0.2-0.4,0.5-0.9,1.3-1c0,0.1,0,0.3,0.1,0.4c-0.4,0.2-0.5,0.7-0.4,1.1c-0.3,0-0.5,0.6-0.5,1
		c-0.5,0.3-0.6,0.8-0.6,1.1c-0.5,0.3-0.5,1-0.4,1.4c-0.5,0.3-0.5,1.2,0,1.8c-0.1,0.2-0.2,0.4-0.2,0.6c-0.2,0-0.4,0-0.5,0.1
		c-0.6-0.3-1.7-1-2.2-1.6c0,0,0,0,0,0c-0.5-1.6-0.3-1.9,0.3-3.2c0.2-0.3,0.2-0.8-0.2-1c0.1,0.3,0.1,0.5-0.1,0.7
		c-0.2,0-0.4,0.2-0.6,0.5c0.1-0.3,0.3-1.1-0.1-1.3c0-0.4-0.4-0.7-0.9-0.6c0.8,0.2,0.2,0.7,0.3,1.2c-0.1,0.2-0.2,0.5-0.1,0.7
		c-0.3-0.1-0.3-0.9-0.7-0.9c-0.2-0.3-0.6-0.5-1-0.3c0.3,0,0.5,0.2,0.6,0.5c-0.1,0.2-0.1,0.5,0.1,0.6c0.9,1.5,0.5,3.7-0.9,4.7
		c0.3,0.3,0.8,0.1,1-0.2c0.5-0.1,0.7-1,0.9-1.5c0.4,2.5,3.3,2.9,3.4,6c0.3-0.4,0.8-1.2,0.8-1.6c0.6,0,1.1-0.3,1.7-0.1
		c0,0.2,0,0.3,0,0.5c-0.2,0.1-0.4,0.5-0.4,0.9c-0.4,1.4-2.2,2.5-3.8,1.6c-0.3-0.2-0.8-0.1-1,0.3c0.2-0.2,0.5-0.1,0.7,0
		c-0.1,0.2-0.1,0.4-0.1,0.5c0,0-0.1,0.1-0.1,0.1c-0.4-0.2-1,0.1-1,0.6c0.2-0.3,0.7-0.3,1-0.2c0,0.1,0.1,0.2,0.2,0.3c0,0,0,0.1,0,0.2
		c-0.3,0.1-0.6,0.5-0.4,0.8c2-1,4.8-1,6.8-0.4c0.1-0.4-0.3-0.7-0.7-0.7c-0.3-0.5-0.9-0.1-1.4-0.4c0.3-1.6,2.5-2.9,2.6-3.6
		c-0.2,1,0.6,1.2,0.5,1.9c0.4-0.5,0.5-0.9,0.5-1.2c0.3-0.1,0.6-0.3,0.8-0.6c0.7,0.2,1.4-0.1,1.8-0.6c0.4,0.2,0.8,0.1,1.1-0.2
		c-0.3,0.3-0.2,1.3,0.7,1.4c0.1,0.5,0.7,0.8,1.3,0.7c0,0,0.1,0,0.1,0.1l-0.1,0.9c-0.2,0.1-0.5,0.2-0.5,0.4c-1.3,0.6-2.4-0.7-3.4-0.7
		c-0.4-0.1-0.8,0.2-0.8,0.6c0.2-0.2,0.4-0.3,0.7-0.2c0.1,0.6,1.5,0.6,1.5,1c-0.7,0.3-1.5-0.7-2-0.3c-0.4-0.1-0.9,0.3-0.8,0.8
		c0.1-0.3,0.4-0.4,0.6-0.3c0,0.3,0.4,0.5,0.6,0.4c0,0,0,0.1-0.1,0.1c-0.3,0.1-0.5,0.4-0.4,0.7c2.2-1.1,4.4-0.7,6.5-0.1
		c0-0.4-0.3-0.7-0.7-0.7c-0.3-0.3-0.9,0-1.3-0.3c1.7-0.4,2.8-1.5,3.6-2.6c0.2,0.3,0.9,0.2,1.3,0.5c-0.1-2-4.8-1.3-1.8-3.6
		c0.2,0.1,0.4,0.2,0.6,0.2c0.1,0.4,0.8,0.7,1.2,0.6c0.2,0.3,0.8,0.4,1.3,0.2l2.5,3.3c-0.6,1.9-2-0.2-3.2-0.2
		c-0.4-0.1-0.8,0.2-0.8,0.6c0.2-0.2,0.4-0.3,0.6-0.2c0,0.3,0.5,0.4,0.5,0.6c-0.5,0-0.7,0-0.8,0.2c-0.3,0-0.7,0.3-0.6,0.7
		c0.4-0.6,1.3-0.1,1.8-0.1c-0.4,0.1-0.5,0.2-0.6,0.4c-0.3,0.1-0.5,0.4-0.4,0.8c1.8-1.1,4.7-1.2,6.5-0.2c0.1-0.4-0.2-0.8-0.6-0.8
		c-2.5-0.6,0.4-3.3-1-5.2c0.4,0.4,1.2,0.8,1.7,0.8c-0.5-1.4-2.6-1.8-3.9-2.7c2.3,0.2,6.5-2.3,4.3-5c0.1,0.1,0.2,0.3,0.3,0.4
		c0.1-0.3,0.4-1,0.5-1.7c0.3,0.5,0.9,0.9,1.4,1.1C32.9,14.6,32.7,12,33,10.8z M28.9,17.1c-1.8-0.2,0.5-1.5,1.1-0.3
		C29.6,17.1,29.2,17.1,28.9,17.1z M10,10.8c0,0-0.4,0.5-0.6-0.1L10,10.8z M8.2,12.4c0-0.1,0-0.1,0-0.2c0,0,0.1,0,0.1,0l0.1,0.1
		c0-0.1,0-0.2,0.1-0.3l0.2,0.1c0-0.1,0-0.3,0.1-0.3L8.9,12v-0.2c0.3-0.2,0.8-0.2,1.2,0.5C9.7,12.3,9,12.4,8.2,12.4z"/>
</g>
</svg>
