<?xml version="1.0" encoding="utf-8"?>
<!-- Generator: Adobe Illustrator 25.3.1, SVG Export Plug-In . SVG Version: 6.00 Build 0)  -->
<svg version="1.1" id="Layer_1" xmlns="http://www.w3.org/2000/svg" xmlns:xlink="http://www.w3.org/1999/xlink" x="0px" y="0px"
	 width="36px" height="36px" viewBox="0 0 36 36" style="enable-background:new 0 0 36 36;" xml:space="preserve">
<style type="text/css">
	.st0{clip-path:url(#SVGID_2_);fill:#049700;}
	.st1{clip-path:url(#SVGID_2_);fill:#EDEDED;}
</style>
<g>
	<defs>
		<path id="SVGID_1_" d="M32,5H4C1.8,5,0,6.8,0,9v18c0,2.2,1.8,4,4,4h28c2.2,0,4-1.8,4-4V9C36,6.8,34.2,5,32,5z"/>
	</defs>
	<clipPath id="SVGID_2_">
		<use xlink:href="#SVGID_1_"  style="overflow:visible;"/>
	</clipPath>
	<path class="st0" d="M32,5H4C1.8,5,0,6.8,0,9v18c0,2.2,1.8,4,4,4h28c2.2,0,4-1.8,4-4V9C36,6.8,34.2,5,32,5z"/>
	<rect y="5" class="st1" width="12" height="12"/>
	<polygon class="st0" points="6,7 6.9,9.8 9.8,9.8 7.5,11.5 8.4,14.3 6,12.5 3.7,14.3 4.6,11.5 2.2,9.8 5.1,9.8 	"/>
</g>
</svg>
