<?xml version="1.0" encoding="utf-8"?>
<!-- Generator: Adobe Illustrator 25.3.1, SVG Export Plug-In . SVG Version: 6.00 Build 0)  -->
<svg version="1.1" id="Layer_1" xmlns="http://www.w3.org/2000/svg" xmlns:xlink="http://www.w3.org/1999/xlink" x="0px" y="0px"
	 width="36px" height="36px" viewBox="0 0 36 36" style="enable-background:new 0 0 36 36;" xml:space="preserve">
<style type="text/css">
	.st0{clip-path:url(#SVGID_2_);fill:#D52B1E;}
	.st1{clip-path:url(#SVGID_2_);fill:#009B48;}
	.st2{clip-path:url(#SVGID_2_);fill:#EEEEEE;}
</style>
<g>
	<defs>
		<path id="SVGID_1_" d="M32,5H4C1.8,5,0,6.8,0,9v18c0,2.2,1.8,4,4,4h28c2.2,0,4-1.8,4-4V9C36,6.8,34.2,5,32,5z"/>
	</defs>
	<clipPath id="SVGID_2_">
		<use xlink:href="#SVGID_1_"  style="overflow:visible;"/>
	</clipPath>
	<path class="st0" d="M32,5H4C1.8,5,0,6.8,0,9v18c0,2.2,1.8,4,4,4h28c2.2,0,4-1.8,4-4V9C36,6.8,34.2,5,32,5z"/>
	<path class="st1" d="M3.2,5.1c-1.2,0.2-2.1,1-2.7,2L15.3,18L0.5,28.9c0.6,1,1.5,1.8,2.7,2L18,20l14.8,10.9c1.2-0.2,2.1-1,2.7-2
		L20.7,18L35.5,7.1c-0.6-1-1.5-1.8-2.7-2L18,16L3.2,5.1z"/>
	<path class="st2" d="M20,5h-4v11H0v4h16v11h4V20h16v-4H20V5z"/>
</g>
</svg>
