<?xml version="1.0" encoding="utf-8"?>
<!-- Generator: Adobe Illustrator 25.3.1, SVG Export Plug-In . SVG Version: 6.00 Build 0)  -->
<svg version="1.1" id="Layer_1" xmlns="http://www.w3.org/2000/svg" xmlns:xlink="http://www.w3.org/1999/xlink" x="0px" y="0px"
	 width="36px" height="36px" viewBox="0 0 36 36" style="enable-background:new 0 0 36 36;" xml:space="preserve">
<style type="text/css">
	.st0{clip-path:url(#SVGID_2_);}
	.st1{fill:#FCDD09;}
	.st2{fill:#0072BC;}
	.st3{fill:#DA121A;}
	.st4{fill:#FFFFFF;}
	.st5{fill:#078930;}
</style>
<g>
	<defs>
		<path id="SVGID_1_" d="M32,5H4C1.8,5,0,6.8,0,9v18c0,2.2,1.8,4,4,4h28c2.2,0,4-1.8,4-4V9C36,6.8,34.2,5,32,5z"/>
	</defs>
	<clipPath id="SVGID_2_">
		<use xlink:href="#SVGID_1_"  style="overflow:visible;"/>
	</clipPath>
	<g class="st0">
		<rect x="0" y="4.9" class="st1" width="39.3" height="26.1"/>
		<rect x="0" y="4.9" class="st2" width="13.1" height="26.1"/>
		<polygon class="st3" points="39.3,10.7 39.3,7.8 13.1,7.8 13.1,4.9 10.2,4.9 10.2,30.9 13.1,30.9 13.1,28 39.3,28 39.3,25.1 
			13.1,25.1 13.1,22.3 39.3,22.3 39.3,19.4 13.1,19.4 13.1,16.5 39.3,16.5 39.3,13.6 13.1,13.6 13.1,10.7 		"/>
		<g>
			<path class="st1" d="M4.3,30c0.8,0.1,0-0.9-0.3-0.3c-0.1,2.4,2.7-0.4,2.1-1.1C6,28.6,4.8,31.3,4.3,30z"/>
			<path class="st1" d="M4.3,24.3C4.8,23,6,25.6,6,25.6c0.6-0.7-2.1-3.5-2.1-1.1C4.3,25.2,5.1,24.2,4.3,24.3z"/>
			<path class="st1" d="M3.9,20.4C3.9,22.8,6.6,20,6,19.3c0,0-1.2,2.6-1.7,1.4C5.1,20.8,4.3,19.8,3.9,20.4z"/>
			<path class="st1" d="M6,16.3c0.6-0.7-2.1-3.5-2.1-1.1c0.3,0.6,1.1-0.4,0.3-0.3C4.8,13.7,6,16.3,6,16.3z"/>
			<path class="st1" d="M3.9,11.2c-0.1,2.4,2.7-0.4,2.1-1.1c0,0-1.2,2.6-1.7,1.4C5,11.5,4.2,10.6,3.9,11.2z"/>
			<path class="st1" d="M4.3,5.7C4.8,4.5,6,7.1,6,7.1C6.6,6.5,3.9,3.6,3.9,6C4.3,6.6,5,5.7,4.3,5.7z"/>
			<path class="st1" d="M9.3,29.6c-0.2-0.4-1.3-0.9-0.7-0.2C8.3,29.4,8,29.6,8,29.6s0.4,0.3,0.6,0.2c-0.6,0.7,0.5,0.2,0.7-0.2
				c0.2,0.1,0.5,0.2,0.6,0.6v-1.1C9.7,29.4,9.5,29.5,9.3,29.6z M8.9,29.6C8.9,29.6,8.9,29.6,8.9,29.6C8.9,29.6,8.9,29.6,8.9,29.6z
				 M9.3,29.6C9.3,29.6,9.3,29.6,9.3,29.6C9.3,29.6,9.3,29.6,9.3,29.6L9.3,29.6z"/>
			<path class="st1" d="M9.3,10.9C9.2,10.6,8,10,8.6,10.7C8.3,10.7,8,11,8,11s0.4,0.3,0.6,0.2C8,11.9,9.1,11.4,9.3,11
				c0.2,0.1,0.5,0.2,0.6,0.6v-1.1C9.8,10.7,9.5,10.9,9.3,10.9z M8.9,11C8.9,11,8.9,11,8.9,11C8.9,11,8.9,11,8.9,11z M9.3,11
				C9.3,11,9.3,11,9.3,11C9.3,11,9.3,11,9.3,11L9.3,11z"/>
			<path class="st1" d="M9.3,24.6c-0.1-0.4-1.3-0.9-0.7-0.2C8.3,24.3,8,24.6,8,24.6s0.4,0.3,0.6,0.2c-0.6,0.7,0.5,0.2,0.7-0.1
				c-0.2,0-0.3,0-0.4,0C9,24.6,9.1,24.6,9.3,24.6z"/>
			<path class="st1" d="M9.3,20.2C9.1,19.9,8,19.3,8.6,20C8.3,20,8,20.3,8,20.3s0.4,0.3,0.6,0.2c-0.6,0.7,0.5,0.2,0.7-0.2
				c0.2,0.1,0.5,0.3,0.6,0.6v-1.2C9.8,20,9.5,20.2,9.3,20.2z M8.8,20.3C8.8,20.3,8.8,20.3,8.8,20.3C8.8,20.3,8.8,20.3,8.8,20.3z
				 M9.3,20.3C9.3,20.3,9.3,20.3,9.3,20.3C9.3,20.3,9.3,20.3,9.3,20.3L9.3,20.3z"/>
			<path class="st1" d="M9.3,6.1C9.1,5.7,8,5.2,8.6,5.9C8.4,5.9,8,6.1,8,6.1s0.4,0.3,0.6,0.2C8,7.1,9.2,6.6,9.3,6.2
				c-0.2,0-0.3,0-0.4,0C9,6.1,9.1,6.1,9.3,6.1z"/>
			<path class="st1" d="M9.9,4.8v0.7C9.8,5.8,9.5,6,9.3,6.1c0,0,0,0.1,0,0.1c0,0,0,0,0,0.1c0.2,0.1,0.4,0.2,0.6,0.4v0.7
				c-2.4,3.1-2-1.9-2.6-0.4C5.6,5.7,6.2,7.4,6.9,8.2C6.4,7.9,6,7.5,5.7,7.3c0.1,1.9-1.3,0.2-0.9,0.5c0.7-0.5-1.1-0.5-0.1,0.4
				C3.6,7.7,3.6,9.4,4.7,9c-1,1,0.8,0.9,0.1,0.4C4.4,9.7,5.8,8,5.7,9.9C6,9.6,6.4,9.3,6.9,9c-0.6,0.8-1.3,2.4,0.5,1.2
				c0.6,1.5,0.1-3.4,2.5-0.4v0.6c0,0,0-0.1,0.1-0.1l0,1.3c0,0,0-0.1,0-0.1v0.6C9.7,13,8.8,13,8.8,13c0.2-0.3,0.3-0.6-0.1-1
				C9.1,13,8.5,11.8,8,11.9l0.1,0.3c-0.8-0.7-0.4,0-0.3,0.4C7.3,12,6.6,12.8,6,13c0-0.1,0-0.1-0.1-0.1c0,0-0.1,0.1-0.1,0.1
				c-0.1,0-0.3-0.1-0.4-0.2c-0.1-0.7,0.1-0.4,0.3-0.2c0.4-0.2,0.1-0.6-0.2-0.5C4.9,12.7,5.3,13,5.8,13c0,0,0,0.1,0,0.1
				c-0.3-0.2-1.1-0.2-1.3,0.1c0.2,0.3,0.9,0.3,1.3,0.2c0,0,0,0.1,0,0.1c-0.5-0.1-0.9,0-0.3,0.9c0.8,0.3,0.1-1,0.1-0.2
				c-0.3-0.6-0.1-0.7,0.2-0.6c0,0,0,0.1,0,0.1c0,0,0,0,0-0.1c0.6,0.1,1.5,0.5,1.9,0.3c-0.2,0.4-0.4,1,0.3,0.3L8,14.4
				c0.5,0.1,1.1-1,0.7-0.1c0.4-0.3,0.3-0.7,0.1-1c0,0,0.8,0.1,1.1,0.8c0,0,0,0,0,0v0.6c-0.1,0.3-0.4,0.5-0.6,0.6
				C9.1,15,8,14.5,8.6,15.2C8.3,15.1,8,15.4,8,15.4s0.4,0.3,0.6,0.2c-0.6,0.8,0.6,0.2,0.7-0.2c0.2,0.1,0.5,0.2,0.6,0.4v0.7
				c-2.4,3-2-1.9-2.5-0.4c-1.8-1.2-1.1,0.5-0.5,1.2c-0.5-0.3-0.9-0.6-1.2-0.9c0,1.2-0.8,1.1-1,0.2c0.9,0.3-1-0.8,0,0.6
				c-1.1-0.4-1.1,1.3,0,0.9c-1,1,0.8,0.9,0.1,0.4c-0.4,0.2,1-1.5,0.9,0.5c0.3-0.3,0.7-0.6,1.1-0.9c-0.6,0.8-1.3,2.4,0.5,1.2
				C8,21,7.5,16.1,9.9,19v0.7c0,0,0,0,0,0l0,1.3c0,0,0,0,0,0v0.6c-0.2,0.7-1,0.8-1,0.8c0.2-0.3,0.3-0.6-0.1-1
				c0.3,0.9-0.2-0.3-0.7-0.1l0.1,0.3c-0.8-0.7-0.4,0-0.3,0.4c-0.5-0.7-1.2,0.1-1.9,0.2c0-0.1,0-0.1-0.1-0.1c0,0-0.1,0.1-0.1,0.1
				c-0.1,0-0.3-0.1-0.4-0.2c-0.2-1,0.4,0.3,0.5-0.5c-0.7-0.4-0.8,0.4-0.4,0.7c0.1,0,0.2,0.1,0.3,0.1c0,0,0,0,0,0
				c-0.1,0-0.2-0.1-0.3-0.2c-0.4-0.1-0.9,0-1,0.2c0.2,0.2,0.7,0.3,1.1,0.2c0.1,0,0.1-0.1,0.2-0.1c0,0,0,0,0,0c-0.1,0-0.1,0-0.2,0
				c-0.5,0.3-0.5,1.3,0.3,0.8c0.1-0.3-0.5-0.5-0.3-0.1c-0.3-0.6-0.1-0.7,0.2-0.6c0,0,0,0.1,0,0.1c0,0,0,0,0-0.1
				c0.6,0.1,1.5,0.5,1.9,0.3c-0.2,0.4-0.4,1,0.3,0.3L8,23.7c0.5,0.1,1.1-1,0.7-0.1c0.4-0.3,0.3-0.7,0.1-1c0,0,0.8,0.1,1,0.8V24
				c-0.1,0.3-0.4,0.5-0.6,0.6c0,0,0,0,0,0c0,0,0,0,0,0.1c0.2,0.1,0.5,0.2,0.6,0.4v0.7c-2.4,3-2-1.9-2.5-0.4C6.9,25.1,6.6,25,6.4,25
				c0,0,0,0,0,0l0,0c-0.3,0-0.2,0.5,0,1l0,0.4c-0.3-0.2-0.5-0.4-0.7-0.6c0,0.1,0,0.2,0,0.3c0,0,0-0.1-0.1-0.1l0,0.6
				c-0.3,0.7-1.2-0.5-0.9-0.2c0.7-0.5-1.1-0.5-0.1,0.4c-1.1-0.4-1.1,1.3,0,0.9c-1,1,0.8,0.9,0.1,0.4c-0.3,0.2,0.6-0.9,0.9-0.2l0,0.5
				c0,0,0-0.1,0.1-0.1c0,0.1,0,0.2,0,0.3c0.2-0.2,0.4-0.4,0.7-0.6l0,0.4c-0.2,0.5-0.3,0.9,0,0.9l0,0c0,0,0,0,0,0
				c0.2,0,0.5-0.1,0.9-0.4c0.6,1.5,0.1-3.4,2.5-0.4v0.8c0,0,0-0.1,0.1-0.1l0,1.3c0,0,0-0.1,0-0.1V31h0.3V4.8H9.9z M7,12.6
				C7,12.6,7,12.6,7,12.6C7,12.6,7,12.6,7,12.6C7,12.6,7,12.6,7,12.6z M6,13c0.3,0,0.7-0.1,0.9-0.3c0,0,0,0.1,0.1,0.1c0,0,0,0,0,0
				c-0.1,0-0.1,0.1-0.2,0.2c-0.1,0.1-0.2,0.2,0,0.4c0,0,0.1,0.1,0.1,0.1c0,0-0.1,0.1-0.1,0.1c-0.2,0-0.6-0.1-1-0.2
				C6,13.3,6,13.1,6,13z M8.4,8.6c0,0,1.2-0.5,1.5-0.8v1.7C9.6,9,8.5,8.7,8.4,8.6z M9.1,13.2c0,0,0.7-0.2,0.7-0.5l0-0.4v1.6
				C9.8,13.5,9.2,13.2,9.1,13.2z M8.4,17.8c0,0,1.1-0.4,1.5-0.7v1.6C9.5,18.2,8.6,17.9,8.4,17.8z M6,22.5c0-0.1,0-0.1,0-0.2
				c0,0,0.1,0,0.1,0C6.5,22.2,6.8,22,6.9,22c0,0,0,0.1,0.1,0.1c0,0,0,0.1-0.1,0.1c0,0-0.1,0.1-0.1,0.1c0,0,0,0.1-0.1,0.1
				c0,0,0,0.1,0.1,0.1c0,0.1,0,0.1,0.1,0.2c0,0,0,0.1,0,0.1c-0.1,0-0.1,0.1-0.1,0.1c-0.1,0-0.4-0.2-0.8-0.4C6.1,22.6,6,22.6,6,22.5z
				 M9.2,22.4c0,0,0.7-0.2,0.7-0.5v1.1C9.7,22.7,9.2,22.5,9.2,22.4z M8.4,27.1c0,0,1.1-0.4,1.5-0.8v1.6C9.5,27.5,8.5,27.2,8.4,27.1z
				"/>
		</g>
		<path class="st4" d="M12,29.5c0,0.2-0.2,0.4-0.4,0.4c-0.2,0-0.4-0.2-0.4-0.4c0-0.2,0.2-0.4,0.4-0.4C11.8,29.1,12,29.3,12,29.5
			L12,29.5z"/>
		<path class="st4" d="M12,23.7c0,0.2-0.2,0.4-0.4,0.4c-0.2,0-0.4-0.2-0.4-0.4c0-0.2,0.2-0.4,0.4-0.4C11.8,23.3,12,23.5,12,23.7
			L12,23.7z"/>
		<path class="st4" d="M12,17.9c0,0.2-0.2,0.4-0.4,0.4c-0.2,0-0.4-0.2-0.4-0.4c0-0.2,0.2-0.4,0.4-0.4C11.8,17.5,12,17.7,12,17.9
			L12,17.9z"/>
		<path class="st4" d="M12,12.1c0,0.2-0.2,0.4-0.4,0.4c-0.2,0-0.4-0.2-0.4-0.4c0-0.2,0.2-0.4,0.4-0.4C11.8,11.7,12,11.9,12,12.1
			L12,12.1z"/>
		<path class="st4" d="M12,6.3c0,0.2-0.2,0.4-0.4,0.4c-0.2,0-0.4-0.2-0.4-0.4c0-0.2,0.2-0.4,0.4-0.4C11.8,5.9,12,6.1,12,6.3L12,6.3z
			"/>
		<g>
			<path class="st1" d="M11.2,8.9c0.1-0.1,0.1-0.2,0.1-0.2c0,0-0.1,0-0.2,0.1C11,8.8,11,8.9,11,8.9C11,9,11.1,8.9,11.2,8.9z"/>
			<path class="st1" d="M11,9.6c0,0,0,0.1,0.1,0.2c0.1,0.1,0.2,0.1,0.2,0.1c0,0,0-0.1-0.1-0.2C11.1,9.6,11,9.5,11,9.6z"/>
			<path class="st1" d="M11.8,8.4c0,0-0.1-0.1-0.2-0.1c0,0,0,0,0,0s0,0,0,0c-0.1,0-0.2,0-0.2,0.1c0,0,0.1,0.1,0.2,0.1
				C11.7,8.5,11.8,8.5,11.8,8.4z"/>
			<path class="st1" d="M12.1,8.9c0,0,0-0.1-0.1-0.2c-0.1-0.1-0.2-0.1-0.2-0.1s0,0.1,0.1,0.2C12,8.9,12.1,9,12.1,8.9z"/>
			<path class="st1" d="M10.7,9.2C10.7,9.2,10.6,9.3,10.7,9.2C10.6,9.3,10.7,9.3,10.7,9.2c0,0.2,0,0.3,0.1,0.3c0,0,0.1-0.1,0.1-0.2
				c0-0.1,0-0.2-0.1-0.2C10.7,9,10.7,9.1,10.7,9.2z"/>
			<path class="st1" d="M12.5,9.2c0-0.1,0-0.2-0.1-0.2c0,0-0.1,0.1-0.1,0.2c0,0.1,0,0.2,0.1,0.2C12.4,9.5,12.5,9.4,12.5,9.2
				C12.5,9.3,12.5,9.2,12.5,9.2C12.5,9.2,12.5,9.2,12.5,9.2z"/>
			<path class="st1" d="M10.9,9.3l0.7,0.7l0.7-0.7l-0.7-0.7L10.9,9.3z M11.8,8.8V9H12l0.2,0.2v0L12,9.5h-0.2v0.2l-0.2,0.2h0
				l-0.2-0.2V9.5h-0.2l-0.2-0.2v0L11.1,9h0.2V8.8l0.2-0.2h0L11.8,8.8z"/>
			<path class="st1" d="M12,9.6c-0.1,0.1-0.1,0.2-0.1,0.2c0,0,0.1,0,0.2-0.1c0.1-0.1,0.1-0.2,0.1-0.2C12.1,9.5,12,9.6,12,9.6z"/>
			<path class="st1" d="M11.4,10.1c0,0,0.1,0.1,0.2,0.1c0,0,0,0,0,0s0,0,0,0c0.1,0,0.2,0,0.2-0.1c0,0-0.1-0.1-0.2-0.1
				C11.5,10,11.4,10,11.4,10.1z"/>
		</g>
		<path class="st1" d="M11.4,16c0,0.1,0.1,0.1,0.1,0.1c0.1,0,0.1-0.1,0.1-0.1s-0.1-0.1-0.1-0.1C11.5,15.9,11.4,15.9,11.4,16L11.4,16
			z M11.4,14c0,0.1,0.1,0.1,0.1,0.1c0.1,0,0.1-0.1,0.1-0.1c0-0.1-0.1-0.1-0.1-0.1C11.5,13.8,11.4,13.9,11.4,14L11.4,14z M12.1,15
			c0,0.5-0.2,0.9-0.5,0.9c-0.3,0-0.5-0.4-0.5-0.9c0-0.5,0.2-0.9,0.5-0.9C11.8,14.1,12.1,14.5,12.1,15L12.1,15z M12.2,15
			C12.2,15,12.2,14.9,12.2,15c-0.1-0.1-0.1,0-0.1,0C12.1,15,12.1,15.1,12.2,15C12.2,15.1,12.2,15,12.2,15L12.2,15z M11.1,15
			C11.1,15,11,14.9,11.1,15c-0.1-0.1-0.1,0-0.1,0C10.9,15,11,15.1,11.1,15C11,15.1,11.1,15,11.1,15L11.1,15z M12,15.8
			C12,15.7,12,15.7,12,15.8c-0.1-0.1-0.1,0-0.1,0C11.9,15.8,11.9,15.8,12,15.8C12,15.8,12,15.8,12,15.8L12,15.8z M11.3,15.8
			C11.3,15.7,11.3,15.7,11.3,15.8c-0.1-0.1-0.1,0-0.1,0C11.2,15.8,11.2,15.8,11.3,15.8C11.3,15.8,11.3,15.8,11.3,15.8L11.3,15.8z
			 M11.1,15.4c0-0.1-0.1-0.1-0.1-0.1c-0.1,0-0.1,0.1-0.1,0.1c0,0.1,0.1,0.1,0.1,0.1C11,15.5,11.1,15.5,11.1,15.4L11.1,15.4z
			 M12.3,15.4c0-0.1-0.1-0.1-0.1-0.1c-0.1,0-0.1,0.1-0.1,0.1s0.1,0.1,0.1,0.1C12.2,15.5,12.3,15.5,12.3,15.4L12.3,15.4z M11.2,14.2
			C11.2,14.3,11.2,14.3,11.2,14.2c0.1,0.1,0.1,0,0.1,0S11.3,14.2,11.2,14.2C11.2,14.2,11.2,14.2,11.2,14.2L11.2,14.2z M11.9,14.2
			C11.9,14.3,11.9,14.3,11.9,14.2c0.1,0.1,0.1,0,0.1,0S12,14.2,11.9,14.2C11.9,14.2,11.9,14.2,11.9,14.2L11.9,14.2z M12,14.6
			c0,0.1,0.1,0.1,0.1,0.1s0.1-0.1,0.1-0.1s-0.1-0.1-0.1-0.1S12,14.5,12,14.6L12,14.6z M10.8,14.6c0,0.1,0.1,0.1,0.1,0.1
			c0.1,0,0.1-0.1,0.1-0.1S11,14.5,11,14.5C10.9,14.5,10.8,14.5,10.8,14.6L10.8,14.6z"/>
		<path class="st5" d="M12,15c0-0.4-0.2-0.7-0.4-0.8c0,0,0,0.1,0,0.1s0-0.1,0-0.1c-0.2,0-0.4,0.4-0.4,0.8c0,0,0,0,0,0c0,0,0,0,0,0
			c0,0.4,0.2,0.7,0.4,0.8c0,0,0-0.1,0-0.1s0,0.1,0,0.1C11.8,15.7,12,15.4,12,15C12,15,12,15,12,15C12,15,12,15,12,15L12,15L12,15z"
			/>
		<path class="st1" d="M11.4,27.5c0,0.1,0.1,0.1,0.1,0.1c0.1,0,0.1-0.1,0.1-0.1c0-0.1-0.1-0.1-0.1-0.1
			C11.5,27.4,11.4,27.4,11.4,27.5L11.4,27.5z M11.4,25.5c0,0.1,0.1,0.1,0.1,0.1c0.1,0,0.1-0.1,0.1-0.1c0-0.1-0.1-0.1-0.1-0.1
			C11.5,25.3,11.4,25.4,11.4,25.5L11.4,25.5z M12.1,26.5c0,0.5-0.2,0.9-0.5,0.9c-0.3,0-0.5-0.4-0.5-0.9c0-0.5,0.2-0.9,0.5-0.9
			C11.8,25.6,12.1,26,12.1,26.5L12.1,26.5z M12.2,26.5C12.2,26.5,12.2,26.4,12.2,26.5c-0.1-0.1-0.1,0-0.1,0
			C12.1,26.5,12.1,26.6,12.2,26.5C12.2,26.6,12.2,26.5,12.2,26.5L12.2,26.5z M11.1,26.5C11.1,26.5,11,26.4,11.1,26.5
			c-0.1-0.1-0.1,0-0.1,0C10.9,26.5,11,26.6,11.1,26.5C11,26.6,11.1,26.5,11.1,26.5L11.1,26.5z M12,27.2C12,27.2,12,27.2,12,27.2
			c-0.1-0.1-0.1,0-0.1,0C11.9,27.3,11.9,27.3,12,27.2C12,27.3,12,27.3,12,27.2L12,27.2z M11.3,27.2C11.3,27.2,11.3,27.2,11.3,27.2
			c-0.1-0.1-0.1,0-0.1,0C11.2,27.3,11.2,27.3,11.3,27.2C11.3,27.3,11.3,27.3,11.3,27.2L11.3,27.2z M11.1,26.9c0-0.1-0.1-0.1-0.1-0.1
			c-0.1,0-0.1,0.1-0.1,0.1S10.9,27,11,27C11,27,11.1,27,11.1,26.9L11.1,26.9z M12.3,26.9c0-0.1-0.1-0.1-0.1-0.1
			c-0.1,0-0.1,0.1-0.1,0.1c0,0.1,0.1,0.1,0.1,0.1S12.3,27,12.3,26.9L12.3,26.9z M11.2,25.7C11.2,25.8,11.2,25.8,11.2,25.7
			c0.1,0.1,0.1,0,0.1,0C11.3,25.7,11.3,25.7,11.2,25.7C11.2,25.7,11.2,25.7,11.2,25.7L11.2,25.7z M11.9,25.7
			C11.9,25.8,11.9,25.8,11.9,25.7c0.1,0.1,0.1,0,0.1,0C12,25.7,12,25.7,11.9,25.7C11.9,25.7,11.9,25.7,11.9,25.7L11.9,25.7z
			 M12,26.1c0,0.1,0.1,0.1,0.1,0.1s0.1-0.1,0.1-0.1S12.2,26,12.2,26S12,26,12,26.1L12,26.1z M10.8,26.1c0,0.1,0.1,0.1,0.1,0.1
			c0.1,0,0.1-0.1,0.1-0.1C11.1,26,11,26,11,26C10.9,26,10.8,26,10.8,26.1L10.8,26.1z"/>
		<path class="st5" d="M12,26.5c0-0.4-0.2-0.7-0.4-0.8c0,0,0,0.1,0,0.1s0-0.1,0-0.1c-0.2,0-0.4,0.4-0.4,0.8v0c0,0,0,0,0,0
			c0,0.4,0.2,0.7,0.4,0.8c0,0,0-0.1,0-0.1s0,0.1,0,0.1C11.8,27.2,12,26.9,12,26.5C12,26.5,12,26.5,12,26.5C12,26.5,12,26.5,12,26.5
			L12,26.5L12,26.5z"/>
		<g>
			<path class="st1" d="M10.7,20.8C10.7,20.8,10.6,20.8,10.7,20.8C10.6,20.8,10.7,20.9,10.7,20.8c0,0.2,0,0.3,0.1,0.3
				c0,0,0.1-0.1,0.1-0.2c0-0.1,0-0.2-0.1-0.2C10.7,20.6,10.7,20.7,10.7,20.8z"/>
			<path class="st1" d="M11.8,20c0,0-0.1-0.1-0.2-0.1c0,0,0,0,0,0s0,0,0,0c-0.1,0-0.2,0-0.2,0.1c0,0,0.1,0.1,0.2,0.1
				C11.7,20.1,11.8,20.1,11.8,20z"/>
			<path class="st1" d="M11.2,20.4c0.1-0.1,0.1-0.2,0.1-0.2c0,0-0.1,0-0.2,0.1C11,20.4,11,20.5,11,20.5C11,20.6,11.1,20.5,11.2,20.4
				z"/>
			<path class="st1" d="M12.1,20.5c0,0,0-0.1-0.1-0.2c-0.1-0.1-0.2-0.1-0.2-0.1c0,0,0,0.1,0.1,0.2C12,20.5,12.1,20.6,12.1,20.5z"/>
			<path class="st1" d="M11.4,21.6c0,0,0.1,0.1,0.2,0.1c0,0,0,0,0,0s0,0,0,0c0.1,0,0.2,0,0.2-0.1c0,0-0.1-0.1-0.2-0.1
				C11.5,21.6,11.4,21.6,11.4,21.6z"/>
			<path class="st1" d="M12,21.2c-0.1,0.1-0.1,0.2-0.1,0.2c0,0,0.1,0,0.2-0.1c0.1-0.1,0.1-0.2,0.1-0.2C12.1,21.1,12,21.1,12,21.2z"
				/>
			<path class="st1" d="M11,21.1c0,0,0,0.1,0.1,0.2c0.1,0.1,0.2,0.1,0.2,0.1c0,0,0-0.1-0.1-0.2C11.1,21.1,11,21.1,11,21.1z"/>
			<path class="st1" d="M12.3,20.8l-0.7-0.7l-0.7,0.7l0.7,0.7L12.3,20.8z M11.3,21.3V21h-0.2l-0.2-0.2v0l0.2-0.2h0.2v-0.2l0.2-0.2h0
				l0.2,0.2v0.2H12l0.2,0.2v0L12,21h-0.2v0.2l-0.2,0.2h0L11.3,21.3z"/>
		</g>
		<path class="st1" d="M12.4,20.6c0,0,0.1,0.1,0.1,0.2c0,0,0,0,0,0s0,0,0,0c0,0.1,0,0.2-0.1,0.2c0,0-0.1-0.1-0.1-0.2
			C12.3,20.7,12.4,20.6,12.4,20.6L12.4,20.6L12.4,20.6z"/>
	</g>
</g>
</svg>
