<?xml version="1.0" encoding="utf-8"?>
<!-- Generator: Adobe Illustrator 25.3.1, SVG Export Plug-In . SVG Version: 6.00 Build 0)  -->
<svg version="1.1" id="Layer_1" xmlns="http://www.w3.org/2000/svg" xmlns:xlink="http://www.w3.org/1999/xlink" x="0px" y="0px"
	 width="36px" height="36px" viewBox="0 0 36 36" style="enable-background:new 0 0 36 36;" xml:space="preserve">
<style type="text/css">
	.st0{clip-path:url(#SVGID_2_);fill:#FCDD09;}
	.st1{clip-path:url(#SVGID_2_);}
	.st2{fill:#DA121A;}
</style>
<g>
	<g>
		<defs>
			<path id="SVGID_1_" d="M32,5H4C1.8,5,0,6.8,0,9v18c0,2.2,1.8,4,4,4h28c2.2,0,4-1.8,4-4V9C36,6.8,34.2,5,32,5z"/>
		</defs>
		<clipPath id="SVGID_2_">
			<use xlink:href="#SVGID_1_"  style="overflow:visible;"/>
		</clipPath>
		<path class="st0" d="M32,5H4C1.8,5,0,6.8,0,9v18c0,2.2,1.8,4,4,4h28c2.2,0,4-1.8,4-4V9C36,6.8,34.2,5,32,5z"/>
		<g class="st1">
			<path class="st2" d="M21.3,17.8c-1.4,0.3-1.3,1.9-0.1,1.3c0.6-0.1,0.3,1.5,0.8,0.9c0.5-0.5,0.6-0.2,0.3,0.2c1-1.4,1-0.1,0.3,0.7
				c0.4,0.2,1.5-0.6,0.9,0.2c1-0.7,1.1-0.3,0.7,0.8C26.8,20.9,24.6,16.1,21.3,17.8z"/>
			<path class="st2" d="M18.4,24.9c-2.1-0.1-0.5,3.2-4.4,3.1c-0.7,0.9,1.1-0.2,1.7,0.3c0,0.5-1.1,0.6-0.6,1.2
				c0.4-0.5,1.4-1.4,2.1-1.4c0.2,0.9,1.3,1.3,0.4,0.1c-0.9-0.7-0.4-1.7,0.7-1.3C16.3,26.4,20.4,25.1,18.4,24.9z"/>
			<path class="st2" d="M28.3,18.4c-0.5-2-2.9-2.6-4.8-2.3c3,0,4.9,3.1,4.3,5.9c-0.5,1.8-2.9,3.6-2.3,5.4c0.1-0.8,0.6-1.6,1.2-1.9
				c0.1,0.7-0.2,2.6,0.7,3.3C26.8,25.3,29.8,21.9,28.3,18.4z"/>
			<path class="st2" d="M25.1,23.7c0.1-0.3,0.6-0.6,0.7-1c-1.4,0.4-2.8,1.1-4.3,1c1.7,0.5,1.6,0.5-0.3,1.1c4,0.1,1.4-0.7,2.1,2.9
				c0-0.4,0.9-4.5,1.1-2.3c0.5-1.6,0.4-0.8,0.7,0.2c0-0.6,0.1-1.3,0.5-1.8C25.3,23.7,25.2,23.8,25.1,23.7z"/>
			<path class="st2" d="M18.7,23c0.2-0.3,0.2-0.6,0.3-0.8c-1.1-0.3-2.3-0.7-3.6-0.6c1.2,1,1.9,2.7,3.5,3.1h0c0.1,0,0.2,0.1,0.2,0.1
				c0.5-0.6,0-1.3,0.3-1.9C19.5,22.9,18.4,23.6,18.7,23z"/>
			<path class="st2" d="M20.8,22.1c0.1-0.2,1.7,1.1,0.7,0.2c-0.5-0.7-0.8-1.5-1.1-2.2c0.4,0.5,1.2,1.4,1.6,1.3
				c-2.1-1.1-2.3-4.7-5.5-5.8c0.9,0.5,1.5,1.7,1.3,2.8c0.6-0.8,0.4,0.2,0.5,0.7c0.7,0-0.1,1.3-0.1,1.7c0.2,0.1,0.8-0.8,0.6,0
				c1.3-2.5,1,0.9,0.4,1.9c0.5-0.2,0.7-0.4,0.6,0.3c1-1.4,0,1.1,0.4,1.4c0.2,0.2,0.1-1.7,0.5-1.7C21.6,23.2,21,22.7,20.8,22.1z"/>
			<path class="st2" d="M15.2,23.2c2.4,0-0.4-1.9-1.4-2.1C13.9,21.7,14.3,23.6,15.2,23.2z"/>
			<path class="st2" d="M24.3,17c-0.1,0-0.3-0.1-0.4,0c2.9,2.4,2.3,5.8-1,5.4c1.1,1.9,5.3-2.5,3,0.9c3.1-1.2,0.6-7.2-1.7-6.6
				C24.5,16.9,24.5,17,24.3,17z"/>
			<path class="st2" d="M9.6,20.9c-0.5,0.1-2.8,0.4-2.2,0.9c0.4,0,1.2-0.6,1.6-0.2c-0.1,0.3-0.9,0.7-0.4,1c0-0.4,0.5,0,0.4-0.6
				c-0.1-0.6,0.7-0.6,1.1-0.4c0.7,0.4-0.3,0.8,0.6,1.3c0.1-0.2-0.3-1.1-0.2-1.3c0.4,0.1,1.4,0.2,1.3,0.9c0-0.6,2.1,0.6,2.2,0.5
				C13.9,21.6,10.6,21.3,9.6,20.9z"/>
			<path class="st2" d="M19.4,20.6c-0.2,0.1-0.9,1.3-0.9,0.4c-0.7,0.5-0.5,0.2-1.3,0c-2.4-0.7,0.9,0.9,1.9,0.9
				C19.2,21.9,19.4,20.9,19.4,20.6z"/>
			<path class="st2" d="M16.3,21.3l0.2,0c-1.5-1.4-2.7-1.7-4.5-2.7c0.9,1.4,2.2,2.6,4,2.7l0,0C16,21.4,16.2,21.3,16.3,21.3z"/>
			<path class="st2" d="M17.5,17.7c-1-3-2.8-2-4.7-1c0.2,2.2,2.9,4.5,4.8,2.2C16.9,18.9,17.7,18,17.5,17.7z"/>
			<path class="st2" d="M17.9,18.8c-0.3,0.6-0.6,0.8-1.2,0.8c0.2,0.2,0.7,0.6,1,0.7c-0.7-0.1-1.4-0.3-2.1-0.1c0.6,0,2.2,0.8,2.4,0.1
				c0,0,0,0,0,0c0.1,0,0.1-0.1,0.1-0.2c-0.3,0-0.6-0.3-0.9-0.5c0.4,0.1,1.3,0.1,0.6,0C17.8,19.4,18,19.2,17.9,18.8z"/>
			<path class="st2" d="M13.2,18.9L13.2,18.9c0.5,0.2,0.2,0-0.1-0.5c-1.4-1.8-0.5-2.3,1-2.8c-0.1-0.7-0.7-1.4-0.1-2.2
				c-0.3-0.1-0.7-0.2-1-0.5c0.9-0.4,0.8-0.5,1.5-1C10.4,10.4,9.5,17.8,13.2,18.9z"/>
			<path class="st2" d="M23.7,16.7c-0.6-0.9-3.5,0.3-3.8,1.4c1-0.3,2.7-1.4,3.9-0.8C23.8,17.2,23.3,16.7,23.7,16.7z"/>
			<polygon class="st2" points="19.5,17.5 19.5,17.5 19.5,17.5 			"/>
			<path class="st2" d="M26.7,16.1c-1.8-1.6-6.5-1.2-7.2,1.4C21.2,16.6,24.3,14.9,26.7,16.1z"/>
			<path class="st2" d="M19.2,16.7c0.7-4.6,9.1-6,9-0.3c0.6-0.7,0.4-2.5-0.2-3.2C27.8,13,27.8,13,28.1,13C25,8.9,17.6,12,19.1,17
				L19.2,16.7z"/>
			<path class="st2" d="M20.3,15.9c0.5-0.3,0.2-1.1,0.7-1.6c-0.6,0.6-1.1,1.3-1.3,2.2C19.9,16.3,20.1,16.1,20.3,15.9z"/>
			<polygon class="st2" points="20.9,14.4 20.9,14.4 20.9,14.4 			"/>
			<path class="st2" d="M20.9,15.5c0.9-0.5,1.6-0.8,2.3-1c0,0.1-0.1,0.2-0.1,0.3c0.2,0,0.5-0.1,0.7,0.1c0-0.2,0.2-0.4,0-0.4
				c0.8,0,1.6,0.2,2.6,0.9c-0.2-0.8-1.4-1.1-2.1-1.4c1.3-1,0.1-1.5-0.4-0.3c-0.2-0.2-0.1-0.4,0.2-0.8c-0.8-0.1-1.5,0.3-1.8,0.5l0,0
				C21.4,13.9,21.1,14.8,20.9,15.5z"/>
			<path class="st2" d="M23.3,10.8c1.3,0.2,3.3-0.3,4.4-1.5c-0.7,0.1-1.4,0.5-2.2,0.6c-0.2-0.4,1.8-1.9,1.6-2.6
				c-0.9,1.5-3.8,2.8-5.2,3.7C22.4,10.9,22.9,10.8,23.3,10.8z"/>
			<path class="st2" d="M14.1,14.7c0.2,1,1.1,0.3,1.7,0.6c-0.2-0.4-0.4-1-0.4-1.4c-0.3,0.3-1.3,1.6-1.1,0.5L14.1,14.7z"/>
			<path class="st2" d="M13.5,11.3c0.1-0.3,0.4-0.3,0.3,0.1c0.6,1.4,1-1,1.4-1c-0.3,0.9-0.1,1.7-0.7,2c0.2,0.3-0.6,0.5-0.8,0.7
				c1.3,0.3,0.6,0.1,0.4,1.2c0.3-0.3,0.7-0.7,0.6,0c0.7-1.1,1.2-1.3,1.1,0.1c0.4-0.4,0.3,0.3,0.5,0.6c0-2,1.6-3.9,0-5.7
				c1.4-0.1,1.4-1.7,0.8-2.8c-0.6,0.7-1,1.4-1.1,0.3c-0.6,0.7-0.6,1.4-0.7,0.2c-0.5,0.1-0.3,1.7-0.9,0.8c-0.4,0.5-0.9,1.2-0.5,2
				c-0.3,0.1-0.4,0.4-0.4,0.6c0.3-0.5,0.6,0,1,0.1c0.7-0.1-0.1-0.7,0-1.1c0-0.2,0.3-0.9,0.5-0.4c0.8-0.4-0.1,0.4-0.2,0.6
				c0,0.3,0.3,0.5,0.3,0.9c-0.5,0.6-1.2-0.1-1.6,0.6C13.1,11.2,13.3,11.8,13.5,11.3z M14.9,9.4c0.2-0.3,0.4,0.1,0.4,0.3
				C15.3,9.8,14.7,9.6,14.9,9.4z"/>
		</g>
	</g>
</g>
</svg>
